<svg width="140" height="25.999999999999996" xmlns="http://www.w3.org/2000/svg" fill="none">
 <g>
  <title>Layer 1</title>
  <path d="m20.1369,26c2.7614,0 5.0473,-2.2575 4.5363,-4.9712c-0.3204,-1.7014 -0.8053,-3.3694 -1.4497,-4.9786c-1.2633,-3.1544 -3.1148,-6.0207 -5.449,-8.43498c-2.3342,-2.41432 -5.1053,-4.32947 -8.15501,-5.63609c-1.50566,-0.64507 -3.06468,-1.13559 -4.6546,-1.46693c-2.70335,-0.56338 -4.96489,1.72638 -4.96489,4.4878l0,16c0,2.7614 2.23858,5 5,5l15.1369,0z" fill="#615DFF" id="svg_2"/>
  <g id="svg_3">
   <path d="m13.7013,26c-2.7614,0 -5.04735,-2.2575 -4.53628,-4.9712c0.32042,-1.7014 0.80529,-3.3694 1.44968,-4.9786c1.2633,-3.1544 3.1148,-6.0207 5.449,-8.43498c2.3342,-2.41432 5.1053,-4.32947 8.155,-5.63609c1.5057,-0.64507 3.0647,-1.13559 4.6546,-1.46693c2.7034,-0.56338 4.9649,1.72638 4.9649,4.4878l0,16c0,2.7614 -2.2386,5 -5,5l-15.1369,0z" fill="#3DD9EB" id="svg_4"/>
  </g>
  <text font-style="normal" font-weight="normal" fill="#ffffff" x="39.85714" y="22" id="svg_5" stroke-width="0" font-size="24" font-family="'Tangerine'" text-anchor="start" xml:space="preserve">DecideSS</text>
  <path id="svg_1" d="m-231,30.20001" opacity="NaN" stroke-width="0" fill="#000000"/>
  <path id="svg_6" d="m71.88469,55.65907l0.56913,0l0.17587,-0.54067l0.17587,0.54067l0.56913,0l-0.46044,0.33415l0.17588,0.54067l-0.46044,-0.33416l-0.46044,0.33416l0.17588,-0.54067l-0.46044,-0.33415z" stroke-width="0" fill="#ffffff"/>
 </g>

</svg>