<svg width="140" height="25.999999999999996" xmlns="http://www.w3.org/2000/svg" fill="none">

 <g>
  <title>Layer 1</title>
  <path id="svg_2" fill="#615DFF" d="m20.1369,26c2.7614,0 5.0473,-2.2575 4.5363,-4.9712c-0.3204,-1.7014 -0.8053,-3.3694 -1.4497,-4.9786c-1.2633,-3.1544 -3.1148,-6.0207 -5.449,-8.43498c-2.3342,-2.41432 -5.1053,-4.32947 -8.15501,-5.63609c-1.50566,-0.64507 -3.06468,-1.13559 -4.6546,-1.46693c-2.70335,-0.56338 -4.96489,1.72638 -4.96489,4.4878l0,16c0,2.7614 2.23858,5 5,5l15.1369,0z"/>
  <g id="svg_3">
   <path id="svg_4" fill="#3DD9EB" d="m13.7013,26c-2.7614,0 -5.04735,-2.2575 -4.53628,-4.9712c0.32042,-1.7014 0.80529,-3.3694 1.44968,-4.9786c1.2633,-3.1544 3.1148,-6.0207 5.449,-8.43498c2.3342,-2.41432 5.1053,-4.32947 8.155,-5.63609c1.5057,-0.64507 3.0647,-1.13559 4.6546,-1.46693c2.7034,-0.56338 4.9649,1.72638 4.9649,4.4878l0,16c0,2.7614 -2.2386,5 -5,5l-15.1369,0z"/>
  </g>
  <text xml:space="preserve" text-anchor="start" font-family="Noto Sans JP" font-size="24" stroke-width="0" id="svg_5" y="22" x="39.85714" fill="#000000">DecideSS</text>
 </g>
</svg>